<?xml version="1.0" encoding="UTF-8"?>
<svg id="Capa_2" data-name="Capa 2" xmlns="http://www.w3.org/2000/svg" xmlns:xlink="http://www.w3.org/1999/xlink" viewBox="0 0 182.24 183.71">
  <defs>
    <style>
      .cls-1 {
        fill: url(#Degradado_sin_nombre_5);
      }

      .cls-2 {
        fill: #faf6f2;
      }

      .cls-3 {
        fill: #faf6f3;
      }

      .cls-4 {
        fill: #f44063;
      }

      .cls-5 {
        fill: #9326dc;
      }

      .cls-6 {
        fill: #7e29e8;
      }

      .cls-7 {
        fill: #f9f6f2;
      }

      .cls-8 {
        fill: #b02acd;
      }

      .cls-9 {
        fill: #f84940;
      }
    </style>
    <linearGradient id="Degradado_sin_nombre_5" data-name="Degradado sin nombre 5" x1="361.93" y1="697.93" x2="542.46" y2="807.16" gradientTransform="translate(-362 -662)" gradientUnits="userSpaceOnUse">
      <stop offset="0" stop-color="#2e38f9"/>
      <stop offset=".22" stop-color="#5d27eb"/>
      <stop offset=".5" stop-color="#cb26aa"/>
      <stop offset=".77" stop-color="#f8433e"/>
      <stop offset="1" stop-color="#fa830e"/>
    </linearGradient>
  </defs>
  <g id="Capa_1-2" data-name="Capa 1">
    <g>
      <path class="cls-1" d="M51.09.46c10.97,1.11,22.12,1.81,33.44,1.93l2.56,1.07c5.36-2.19,11.65-2.2,17,0l.87-.92c9.75-.27,19.46-.97,29.13-2.08,24.53,1.47,40.46,10.29,46,35,1.52,14.27,1.93,28.69,1,43,.29,17.08.63,33.75,1,50-.99,32.37-10.17,51.48-45.51,53.99-24.82,1.76-62.09,1.57-87.03.05S3.02,169.68,1.09,142.46C.33,117.24,0,92.24.09,67.46.34,46.05-3.03,25.5,15.61,10.48,25.66,2.39,38.65.99,51.09.46Z"/>
      <g>
        <path class="cls-8" d="M134.09.46c-8.61,4.83-20.23,2.87-30,3-3.84-1.4-2.51-2.4,4-3,6.78-.78,18.95-.42,26,0Z"/>
        <path class="cls-6" d="M78.09.46c2.76.55,5.59.73,8.49.54,2.86.19,3.13,1.19.51,2.46-6.82-.12-13.68.09-20.51,0L51.09.46c8.89-.38,18.08,0,27,0Z"/>
        <path class="cls-5" d="M108.09.46c-.88.1-3.08,1.9-5,1.01l1,1.99c-5.64.08-11.36.1-17,0,.84-4.34-6.61-.15-9-3h30Z"/>
        <path class="cls-4" d="M182.09,78.46c-.28.87-.62.86-1,0-.15-14.36-.56-28.66-1-43,3.16,14.11,1.86,28.57,2,43Z"/>
        <path class="cls-9" d="M182.09,128.46c-1.66-1.04-1-3.79-1.02-5.49-.16-14.83.17-29.69.02-44.51h1"/>
        <path class="cls-7" d="M79.09,111.46c4.52-16.57,9.52-32.9,15-49,1.61-5.12,6.1-22.7,9.06-25.44,6.24-5.8,15.4-1.72,15.63,6.77-9.73,30.52-17.17,62.12-27.42,92.44-1.83,5.41-2.4,11.36-8.54,13.46-6.77,2.32-12.2-2.6-11.51-9.44.72-7.22,5.74-20.78,7.78-28.79Z"/>
        <path class="cls-2" d="M46.51,120.04c-5.77-4.75-21.63-18.62-25.42-24.08s-2.3-8.7,1.98-13.02c6.5-6.57,23.21-19.45,31.11-24.89,5.14-3.54,11.85-7.73,16.33-.51,3.66,5.92-.78,9.09-4.94,12.89-7.89,7.19-18.38,13.32-26.45,20.53,4.89,5.25,24.45,19.19,25.79,25.22,1.12,5.05-1.82,10.27-7.29,10.31-4.59.04-7.79-3.73-11.1-6.45Z"/>
        <path class="cls-3" d="M128.44,72.11c-.75-.8-3.97-4.78-4.15-5.35-2.66-8.61,4.65-13.63,12.5-9.5,9.31,4.9,20.22,21.22,29.83,27.17,3.56,3.68,3.59,10.29.02,14.08-10.24,7.58-19.02,17.17-29.07,24.93-3.69,2.85-6.95,6.74-11.96,6.08-23.1-8.62,17.12-28.66,23.44-37.67.54-2.52-17.85-16.77-20.61-19.74Z"/>
      </g>
    </g>
  </g>
</svg>